<svg xmlns="http://www.w3.org/2000/svg" aria-label="Logo" class="h-4 w-auto shrink-0 fill-current group-hover/logo:rotate-90" viewBox="0 0 327 309">
  <path fill="currentColor" d="M311.63 154.67v-14.83l-120.7 6.95c-4.21.23-7.81-3-8.04-7.2a7.62 7.62 0 0 1 1.51-5l66.12-100.67-25.7-14.84-54.34 108.02c-1.9 3.76-6.49 5.28-10.25 3.38-1.54-.78-2.7-2-3.41-3.43L102.51 19.08l-25.7 14.84 66.38 101.06c2.31 3.52 1.33 8.24-2.18 10.56a7.6 7.6 0 0 1-4.61 1.24v.02l-120.7-6.95v29.66l120.7-6.95c4.21-.23 7.81 2.99 8.04 7.2.1 1.86-.48 3.61-1.51 5L76.81 275.43l12.87 7.43.01-.01 12.84 7.41 54.33-108.01c1.9-3.76 6.49-5.28 10.25-3.38 1.54.78 2.7 2 3.41 3.43l54.31 107.96 12.83-7.41.43-.23 12.44-7.19-66.37-101.06a7.62 7.62 0 0 1 2.18-10.55 7.58 7.58 0 0 1 4.6-1.24v-.01l120.7 6.95v-14.83zm15.31-22.92v45.84h-.02l-.01.42c-.23 4.21-3.83 7.43-8.04 7.2l-113.66-6.54 62.47 95.11.25.41c2.09 3.65.84 8.31-2.81 10.41l-19.43 11.21-.39.24-19.85 11.46-.39.21c-3.76 1.9-8.35.39-10.25-3.38l-51.15-101.68-51.07 101.53c-.09.18-.18.36-.28.54-2.11 3.65-6.79 4.89-10.43 2.78l-19.85-11.46.01-.01-19.83-11.44-.39-.24c-3.52-2.31-4.49-7.04-2.18-10.56l62.48-95.13-113.09 6.51c-.32.04-.65.06-.98.06a7.65 7.65 0 0 1-7.65-7.65v-45.84h.02l.01-.42c.23-4.21 3.83-7.44 8.04-7.2l113.66 6.55-62.47-95.11-.25-.41c-2.09-3.65-.84-8.31 2.81-10.4l39.29-22.69c.24-.16.5-.31.77-.44 3.76-1.9 8.36-.39 10.26 3.38l51.15 101.68L214.84 5.01l.01.01.2-.37c2.09-3.65 6.75-4.91 10.4-2.81l39.7 22.92.39.24c3.52 2.31 4.49 7.04 2.18 10.55l-62.48 95.13 113.09-6.52c.32-.04.65-.06.98-.06a7.65 7.65 0 0 1 7.65 7.65z"/>
</svg>
