<svg xmlns="http://www.w3.org/2000/svg" width="188" height="188" fill="none">
  <path fill="url(#a)" d="M77.664 124.43c-.27-9.97 6.34-18.2 16.47-17.94 10.78-.06 16.31 7.36 16.17 17.94v63.51h40.58V115.9c.15-15.22-5.94-29.13-18.6-36.9-15.47-9.68-36.13-5.99-48.8 6.66-3.4 9.37-5.53 20.7-5.81 34.38v4.39z"/>
  <path fill="#6A25FF" d="M37.054 115.31v72.63h40.58v-63.51c-.01-1.49 0-2.95.03-4.39V93.03c1.65-2.72 3.61-5.18 5.81-7.37 14.65-40.38 52.8-44.59 67.4-45.09V0c-86.7 0-113.82 77.59-113.82 115.31"/>
  <path fill="#6A25FF" d="M77.664 120.05c.28-13.68 2.41-25.01 5.81-34.38-2.2 2.2-4.16 4.66-5.81 7.37z"/>
  <defs>
    <linearGradient id="a" x1="77.654" x2="150.884" y1="130.73" y2="130.73" gradientUnits="userSpaceOnUse">
      <stop stop-color="#fff" stop-opacity="0"/>
      <stop offset=".11" stop-color="#6A25FF" stop-opacity=".25"/>
      <stop offset=".21" stop-color="#6A25FF" stop-opacity=".55"/>
      <stop offset=".32" stop-color="#6A25FF"/>
      <stop offset="1" stop-color="#6A25FF"/>
    </linearGradient>
  </defs>
</svg>
