<svg xmlns="http://www.w3.org/2000/svg" width="24" height="24" fill="none">
  <path fill="#fff" d="M10.724 18h2.788v3h-2.788z"/>
  <ellipse cx="12.332" cy="12.5" fill="#fff" rx="5.898" ry="6.5"/>
  <path fill="#FFBDAF" d="M8.63 14.606c0 1.44-1.212 2.606-2.707 2.606s-2.706-1.166-2.706-2.606S4.43 12 5.923 12c1.495 0 2.706 1.167 2.706 2.606m11.21-.356c0 1.243-1.08 2.25-2.413 2.25s-2.413-1.007-2.413-2.25S16.093 12 17.426 12s2.413 1.007 2.413 2.25"/>
  <path fill="#171717" fill-rule="evenodd" d="M11.83 18.985c-3.061-.194-5.918-3.482-5.828-9.267l.37.005c-.09 5.715 2.72 8.74 5.482 8.915 1.384.087 2.803-.528 3.912-1.93 1.111-1.403 1.91-3.596 2.023-6.64l.369.012c-.115 3.091-.927 5.36-2.096 6.837-1.171 1.48-2.704 2.165-4.232 2.068" clip-rule="evenodd"/>
  <path fill="#171717" d="M4.471 18.873c-.855 1.866 4.812 4.63 5.748-.414-2.706-1.535-3.57-4.116-3.699-8.036 1.776-.16 2.463-.85 3.42-2.604-.29 3.126 1.596 2.836 2.719-1.232 1.198 2.129 2.216 2.837 4.709 3.15.318 6.225-2.2 7.994-3.6 8.785 0 4.801 7.136 2.688 6.006-.438 1.934 1.54 6.531.832 2.395-4.07-2.395-2.838-1.524-10.48-9.892-10.48s-7.902 7.44-10.265 9.973c-5.064 5.753 1.777 6.477 2.46 5.366"/>
  <path fill="#171717" fill-rule="evenodd" d="M2.177 13.551C.926 14.984.433 16.08.377 16.891c-.056.797.31 1.34.842 1.69.541.358 1.26.518 1.89.52.313 0 .595-.038.813-.107.225-.07.354-.162.406-.247l.331.155c-.173.38-.028.835.373 1.255.397.416 1.018.763 1.694.903.673.14 1.385.072 1.981-.318.577-.377 1.074-1.073 1.311-2.24-2.698-1.598-3.544-4.254-3.67-8.158l-.006-.163.173-.016c.86-.078 1.434-.283 1.91-.667.482-.39.879-.977 1.355-1.856l.35.094c-.071.776-.005 1.314.131 1.626.068.156.146.238.215.277.062.034.136.044.235.01.105-.034.235-.117.384-.267.147-.149.304-.355.463-.624.32-.536.642-1.306.92-2.318l.12-.438.223.4c.594 1.061 1.13 1.746 1.81 2.207.678.46 1.52.711 2.75.867l.152.02.008.144c.16 3.151-.392 5.194-1.175 6.556-.752 1.307-1.71 1.97-2.415 2.381.023 1.107.442 1.79 1.015 2.17.596.395 1.394.485 2.18.331.784-.153 1.53-.545 2.008-1.077.475-.528.684-1.188.427-1.906l-.215-.597.51.41c.452.362 1.065.595 1.67.666.609.07 1.181-.027 1.566-.292.372-.256.6-.69.489-1.372-.113-.692-.578-1.633-1.602-2.854-.62-.741-1.022-1.786-1.406-2.904l-.199-.586c-.321-.956-.655-1.949-1.116-2.882-.555-1.123-1.287-2.144-2.382-2.885-1.093-.74-2.564-1.212-4.62-1.212s-3.554.46-4.686 1.179c-1.134.72-1.914 1.708-2.516 2.786-.512.917-.891 1.89-1.251 2.813l-.193.494c-.417 1.054-.84 2.028-1.453 2.692m5.205-9.073c1.203-.764 2.777-1.239 4.895-1.239 2.119 0 3.67.488 4.836 1.278 1.165.788 1.93 1.867 2.501 3.02.472.956.815 1.975 1.136 2.93l.196.578c.386 1.125.771 2.11 1.345 2.796 1.04 1.242 1.55 2.239 1.677 3.017.129.79-.137 1.36-.636 1.705-.487.335-1.165.433-1.83.356a3.9 3.9 0 0 1-1.456-.47c.087.672-.166 1.284-.609 1.776-.539.6-1.362 1.027-2.216 1.194s-1.766.079-2.469-.387c-.71-.47-1.173-1.303-1.173-2.552v-.098l.09-.05c.683-.39 1.63-1.013 2.37-2.302.732-1.27 1.272-3.205 1.138-6.23-1.178-.16-2.044-.421-2.763-.909-.657-.445-1.175-1.07-1.7-1.944-.254.831-.54 1.491-.832 1.981q-.256.428-.515.69c-.172.174-.35.3-.532.36a.67.67 0 0 1-.549-.04c-.162-.09-.283-.248-.368-.444-.11-.254-.175-.6-.186-1.031-.337.551-.67.98-1.066 1.3-.514.415-1.12.636-1.942.73.146 3.835 1.015 6.3 3.596 7.775l.107.062-.021.117c-.24 1.298-.787 2.123-1.487 2.58-.7.458-1.523.529-2.273.373-.748-.155-1.439-.538-1.89-1.011-.318-.333-.532-.729-.54-1.13a2 2 0 0 1-.177.066 3.2 3.2 0 0 1-.932.124c-.684-.002-1.483-.175-2.102-.583-.627-.414-1.063-1.068-.999-1.998.064-.917.612-2.081 1.886-3.54l.001-.001.002-.002c.564-.609.967-1.523 1.387-2.587q.095-.24.19-.488c.36-.923.749-1.92 1.273-2.86.62-1.109 1.436-2.15 2.637-2.912" clip-rule="evenodd"/>
  <path fill="#171717" d="M9.967 2.221c-.914-.712-1.252-1.48-.7-1.806.847-.578 3.68.99 3.68 3.266 0 0-1.988-.688-2.98-1.46"/>
  <path fill="#171717" fill-rule="evenodd" d="M10.159.42c-.36-.101-.618-.073-.755.026L9.399.45l-.006.004a.35.35 0 0 0-.168.222.63.63 0 0 0 .044.36c.113.296.396.659.834 1.02.469.387 1.184.76 1.794 1.04a18 18 0 0 0 .823.352c-.094-1.005-.709-1.86-1.42-2.418-.386-.304-.79-.513-1.141-.61m2.76 3.296-.066.167h-.002l-.005-.002-.017-.007a10 10 0 0 1-.303-.118 17 17 0 0 1-.79-.339c-.614-.281-1.367-.67-1.876-1.09-.463-.383-.798-.794-.94-1.17A.96.96 0 0 1 8.86.6a.7.7 0 0 1 .324-.44c.28-.2.682-.192 1.078-.082.408.114.857.35 1.274.677.831.655 1.568 1.705 1.568 2.962v.26l-.252-.093z" clip-rule="evenodd"/>
  <path fill="#171717" d="M13.498 20.649c-.83.323-2.01.271-2.816 0-.93-.314-1.582.428-.449.889v1.977c1.083.46 2.568.417 3.649.071v-2.048c.996-.151.813-1.223-.384-.89"/>
  <path fill="#171717" fill-rule="evenodd" d="M10.544 20.413v-1.86h.377v1.962c.742.213 1.75.248 2.495.005v-1.968h.376v1.87c.229-.035.428-.022.593.03.224.073.38.22.435.403.103.345-.164.683-.636.807v2.024l-.128.04c-1.136.354-2.7.403-3.858-.078l-.11-.046v-1.968q-.373-.171-.523-.396c-.12-.18-.121-.376-.01-.538.106-.152.294-.25.506-.288.146-.027.31-.028.483.001m0 .353a1 1 0 0 0-.409-.016c-.143.026-.226.084-.261.134-.029.042-.039.096.013.174.057.087.193.2.463.307l.114.045v1.968c.998.373 2.326.346 3.343.059v-2.06l.158-.024c.447-.066.523-.302.492-.408-.018-.06-.073-.127-.196-.167a.96.96 0 0 0-.469-.005v.071h-.247c-.836.274-1.93.231-2.736 0h-.265zm5.561-6.676a2.96 2.96 0 0 0 2.944-2.973 2.96 2.96 0 0 0-2.944-2.974 2.96 2.96 0 0 0-2.944 2.974 2.96 2.96 0 0 0 2.944 2.973m0 .34a3.314 3.314 0 0 0 3.316-3.313 3.314 3.314 0 0 0-3.316-3.313 3.314 3.314 0 0 0-3.316 3.313 3.314 3.314 0 0 0 3.316 3.313m-8.052-.34a2.96 2.96 0 0 0 2.944-2.973 2.96 2.96 0 0 0-2.944-2.974 2.96 2.96 0 0 0-2.944 2.974 2.96 2.96 0 0 0 2.944 2.973m0 .34a3.314 3.314 0 0 0 3.315-3.313 3.314 3.314 0 0 0-3.315-3.313 3.314 3.314 0 0 0-3.316 3.313 3.314 3.314 0 0 0 3.316 3.313" clip-rule="evenodd"/>
  <path fill="#171717" fill-rule="evenodd" d="M12.947 11.78h-1.736v-.443h1.736z" clip-rule="evenodd"/>
  <path fill="#171717" d="M15.474 11.338c0 .325-.142.588-.316.588s-.316-.263-.316-.588c0-.326.141-.59.316-.59.174 0 .316.264.316.59m-5.684 0c0 .325-.142.588-.316.588s-.316-.263-.316-.588c0-.326.141-.59.316-.59.174 0 .316.264.316.59"/>
  <path fill="#171717" fill-rule="evenodd" d="M11.83 18.985c-3.061-.194-5.918-3.482-5.828-9.267l.37.005c-.09 5.715 2.72 8.74 5.482 8.915 1.384.087 2.803-.528 3.912-1.93 1.111-1.403 1.91-3.596 2.023-6.64l.369.012c-.115 3.091-.927 5.36-2.096 6.837-1.171 1.48-2.704 2.165-4.232 2.068" clip-rule="evenodd"/>
  <path fill="#171717" d="M4.471 18.873c-.855 1.866 4.812 4.63 5.748-.414-2.706-1.535-3.57-4.116-3.699-8.036 1.776-.16 2.463-.85 3.42-2.604-.29 3.126 1.596 2.836 2.719-1.232 1.198 2.129 2.216 2.837 4.709 3.15.318 6.225-2.2 7.994-3.6 8.785 0 4.801 7.136 2.688 6.006-.438 1.934 1.54 6.531.832 2.395-4.07-2.395-2.838-1.524-10.48-9.892-10.48s-7.902 7.44-10.265 9.973c-5.064 5.753 1.777 6.477 2.46 5.366"/>
  <path fill="#171717" fill-rule="evenodd" d="M2.177 13.551C.926 14.984.433 16.08.377 16.891c-.056.797.31 1.34.842 1.69.541.358 1.26.518 1.89.52.313 0 .595-.038.813-.107.225-.07.354-.162.406-.247l.331.155c-.173.38-.028.835.373 1.255.397.416 1.018.763 1.694.903.673.14 1.385.072 1.981-.318.577-.377 1.074-1.073 1.311-2.24-2.698-1.598-3.544-4.254-3.67-8.158l-.006-.163.173-.016c.86-.078 1.434-.283 1.91-.667.482-.39.879-.977 1.355-1.856l.35.094c-.071.776-.005 1.314.131 1.626.068.156.146.238.215.277.062.034.136.044.235.01.105-.034.235-.117.384-.267.147-.149.304-.355.463-.624.32-.536.642-1.306.92-2.318l.12-.438.223.4c.594 1.061 1.13 1.746 1.81 2.207.678.46 1.52.711 2.75.867l.152.02.008.144c.16 3.151-.392 5.194-1.175 6.556-.752 1.307-1.71 1.97-2.415 2.381.023 1.107.442 1.79 1.015 2.17.596.395 1.394.485 2.18.331.784-.153 1.53-.545 2.008-1.077.475-.528.684-1.188.427-1.906l-.215-.597.51.41c.452.362 1.065.595 1.67.666.609.07 1.181-.027 1.566-.292.372-.256.6-.69.489-1.372-.113-.692-.578-1.633-1.602-2.854-.62-.741-1.022-1.786-1.406-2.904l-.199-.586c-.321-.956-.655-1.949-1.116-2.882-.555-1.123-1.287-2.144-2.382-2.885-1.093-.74-2.564-1.212-4.62-1.212s-3.554.46-4.686 1.179c-1.134.72-1.914 1.708-2.516 2.786-.512.917-.891 1.89-1.251 2.813l-.193.494c-.417 1.054-.84 2.028-1.453 2.692m5.205-9.073c1.203-.764 2.777-1.239 4.895-1.239 2.119 0 3.67.488 4.836 1.278 1.165.788 1.93 1.867 2.501 3.02.472.956.815 1.975 1.136 2.93l.196.578c.386 1.125.771 2.11 1.345 2.796 1.04 1.242 1.55 2.239 1.677 3.017.129.79-.137 1.36-.636 1.705-.487.335-1.165.433-1.83.356a3.9 3.9 0 0 1-1.456-.47c.087.672-.166 1.284-.609 1.776-.539.6-1.362 1.027-2.216 1.194s-1.766.079-2.469-.387c-.71-.47-1.173-1.303-1.173-2.552v-.098l.09-.05c.683-.39 1.63-1.013 2.37-2.302.732-1.27 1.272-3.205 1.138-6.23-1.178-.16-2.044-.421-2.763-.909-.657-.445-1.175-1.07-1.7-1.944-.254.831-.54 1.491-.832 1.981q-.256.428-.515.69c-.172.174-.35.3-.532.36a.67.67 0 0 1-.549-.04c-.162-.09-.283-.248-.368-.444-.11-.254-.175-.6-.186-1.031-.337.551-.67.98-1.066 1.3-.514.415-1.12.636-1.942.73.146 3.835 1.015 6.3 3.596 7.775l.107.062-.021.117c-.24 1.298-.787 2.123-1.487 2.58-.7.458-1.523.529-2.273.373-.748-.155-1.439-.538-1.89-1.011-.318-.333-.532-.729-.54-1.13a2 2 0 0 1-.177.066 3.2 3.2 0 0 1-.932.124c-.684-.002-1.483-.175-2.102-.583-.627-.414-1.063-1.068-.999-1.998.064-.917.612-2.081 1.886-3.54l.001-.001.002-.002c.564-.609.967-1.523 1.387-2.587q.095-.24.19-.488c.36-.923.749-1.92 1.273-2.86.62-1.109 1.436-2.15 2.637-2.912" clip-rule="evenodd"/>
  <path fill="#171717" d="M9.967 2.221c-.914-.712-1.252-1.48-.7-1.806.847-.578 3.68.99 3.68 3.266 0 0-1.988-.688-2.98-1.46"/>
  <path fill="#171717" fill-rule="evenodd" d="M10.159.42c-.36-.101-.618-.073-.755.026L9.399.45l-.006.004a.35.35 0 0 0-.168.222.63.63 0 0 0 .044.36c.113.296.396.659.834 1.02.469.387 1.184.76 1.794 1.04a18 18 0 0 0 .823.352c-.094-1.005-.709-1.86-1.42-2.418-.386-.304-.79-.513-1.141-.61m2.76 3.296-.066.167h-.002l-.005-.002-.017-.007a10 10 0 0 1-.303-.118 17 17 0 0 1-.79-.339c-.614-.281-1.367-.67-1.876-1.09-.463-.383-.798-.794-.94-1.17A.96.96 0 0 1 8.86.6a.7.7 0 0 1 .324-.44c.28-.2.682-.192 1.078-.082.408.114.857.35 1.274.677.831.655 1.568 1.705 1.568 2.962v.26l-.252-.093z" clip-rule="evenodd"/>
  <path fill="#171717" d="M13.498 20.649c-.83.323-2.01.271-2.816 0-.93-.314-1.582.428-.449.889v1.977c1.083.46 2.568.417 3.649.071v-2.048c.996-.151.813-1.223-.384-.89"/>
  <path fill="#171717" fill-rule="evenodd" d="M10.544 20.413v-1.86h.377v1.962c.742.213 1.75.248 2.495.005v-1.968h.376v1.87c.229-.035.428-.022.593.03.224.073.38.22.435.403.103.345-.164.683-.636.807v2.024l-.128.04c-1.136.354-2.7.403-3.858-.078l-.11-.046v-1.968q-.373-.171-.523-.396c-.12-.18-.121-.376-.01-.538.106-.152.294-.25.506-.288.146-.027.31-.028.483.001m0 .353a1 1 0 0 0-.409-.016c-.143.026-.226.084-.261.134-.029.042-.039.096.013.174.057.087.193.2.463.307l.114.045v1.968c.998.373 2.326.346 3.343.059v-2.06l.158-.024c.447-.066.523-.302.492-.408-.018-.06-.073-.127-.196-.167a.96.96 0 0 0-.469-.005v.071h-.247c-.836.274-1.93.231-2.736 0h-.265zm5.561-6.676a2.96 2.96 0 0 0 2.944-2.973 2.96 2.96 0 0 0-2.944-2.974 2.96 2.96 0 0 0-2.944 2.974 2.96 2.96 0 0 0 2.944 2.973m0 .34a3.314 3.314 0 0 0 3.316-3.313 3.314 3.314 0 0 0-3.316-3.313 3.314 3.314 0 0 0-3.316 3.313 3.314 3.314 0 0 0 3.316 3.313m-8.052-.34a2.96 2.96 0 0 0 2.944-2.973 2.96 2.96 0 0 0-2.944-2.974 2.96 2.96 0 0 0-2.944 2.974 2.96 2.96 0 0 0 2.944 2.973m0 .34a3.314 3.314 0 0 0 3.315-3.313 3.314 3.314 0 0 0-3.315-3.313 3.314 3.314 0 0 0-3.316 3.313 3.314 3.314 0 0 0 3.316 3.313" clip-rule="evenodd"/>
  <path fill="#171717" fill-rule="evenodd" d="M12.947 11.78h-1.736v-.443h1.736z" clip-rule="evenodd"/>
  <path fill="#171717" d="M15.474 11.338c0 .325-.142.588-.316.588s-.316-.263-.316-.588c0-.326.141-.59.316-.59.174 0 .316.264.316.59m-5.684 0c0 .325-.142.588-.316.588s-.316-.263-.316-.588c0-.326.141-.59.316-.59.174 0 .316.264.316.59"/>
</svg>
