<svg xmlns="http://www.w3.org/2000/svg" width="178" height="178" fill="none">
  <path fill="#17282A" d="M117.309 140.632c-1.766 5.887-2.311 7.191-3.014 10.852-1.44 7.475-5.635 11.913-12.974 11.95q-44.403.222-88.813.044C4.538 163.441-.006 158.111 0 149.462q.044-43.89.194-87.78c.022-11.254.225-22.517-.09-33.76-.277-9.787 5.45-14.46 13.964-14.361 32.364.379 64.753.11 97.132.104 8.717 0 13.448 4.661 13.43 13.254-.019 9.007-.087 18.013-.087 27.01 0 4.812-.789 4.325-6.365 8.499-2.438 1.682-2.2-2.325-2.2-2.858 0-8.1-.019-16.197.034-24.294.098-14.466 1.347-12.946-13.128-12.946H16.127c-7.019 0-7.447.453-7.441 7.212.03 39.808.102 79.616 0 119.421 0 4.007 1.338 5.675 5.345 5.653q43.365-.222 86.729-.28c3.129 0 4.568-1.233 5.206-4.396 1.045-5.194 2.636-10.279 4.007-15.411a141.2 141.2 0 0 1 18.534-33.97c6.908-9.411 15.159-17.44 24.113-24.834 1.621-1.338 3.153-1.628 4.546-.142 1.523 1.621.58 3.208-.721 4.534s-2.715 2.663-4.09 3.976c-16.54 15.837-28.505 34.506-35.046 56.539"/>
  <path fill="#6AA766" fill-rule="evenodd" d="M117.309 140.632c6.541-22.032 18.494-40.687 35.046-56.536l.775-.737c1.121-1.067 2.246-2.137 3.315-3.239 1.316-1.356 2.244-2.913.721-4.534-1.393-1.486-2.925-1.196-4.546.142-8.939 7.397-17.205 15.41-24.113 24.834a141.2 141.2 0 0 0-18.534 33.97c-10.43-24.187-6.22-54.489 22.088-71.096 12.705-7.453 25.962-12.299 40.015-15.751 2.533-.616 4.207-.253 4.416 2.543.917 12.123 1.017 24.133-.977 35.718L163 93.99l11.069-1.194a81 81 0 0 1-3.439 10.577L151 115.99l14.045-1.515a77 77 0 0 1-1.233 1.952c-8.794 13.457-22.501 19.899-37.804 23.117a54 54 0 0 1-8.699 1.088" clip-rule="evenodd"/>
  <path fill="#17282A" d="M92.182 56.078h-62.11a4.601 4.601 0 1 0 0 9.2h62.11a4.601 4.601 0 1 0 0-9.2M85.55 81.695H29.842a4.374 4.374 0 0 0-4.374 4.374v.453a4.374 4.374 0 0 0 4.374 4.374h55.706a4.374 4.374 0 0 0 4.374-4.374v-.453a4.374 4.374 0 0 0-4.374-4.374m-14.892 25.993H29.282a3.813 3.813 0 0 0-3.813 3.813v1.575a3.813 3.813 0 0 0 3.813 3.813h41.374a3.813 3.813 0 0 0 3.813-3.813v-1.575a3.813 3.813 0 0 0-3.813-3.813"/>
</svg>
