<svg xmlns="http://www.w3.org/2000/svg" width="40" height="40" fill="none">
  <g fill="#5B21B6" clip-path="url(#a)">
    <path d="M.095 19.17a5.82 5.82 0 0 1 5.281-6.31l15.455-1.371a5.82 5.82 0 0 1 6.31 5.281l1.37 15.455a5.82 5.82 0 0 1-5.281 6.31l-15.455 1.37a5.82 5.82 0 0 1-6.31-5.282z"/>
    <path fill-rule="evenodd" d="M34.387 6.967 20.332 3.222a3.394 3.394 0 0 0-4.153 2.405l-3.745 14.056a3.394 3.394 0 0 0 2.406 4.153l14.055 3.745a3.394 3.394 0 0 0 4.153-2.406l3.745-14.055a3.394 3.394 0 0 0-2.406-4.153M21.081.41a6.303 6.303 0 0 0-7.713 4.467L9.623 18.933a6.303 6.303 0 0 0 4.468 7.714l14.055 3.745a6.303 6.303 0 0 0 7.713-4.468l3.745-14.055a6.303 6.303 0 0 0-4.468-7.713z" clip-rule="evenodd"/>
  </g>
  <defs>
    <clipPath id="a">
      <path fill="#fff" d="M0 0h40v40H0z"/>
    </clipPath>
  </defs>
</svg>
