<svg xmlns="http://www.w3.org/2000/svg" viewBox="0 0 16 16">
  <path d="M6.5 4.454 2 7.467V1.753a.76.76 0 0 1 .463-.696.75.75 0 0 1 .817.164zm3 0L14 7.467V1.753a.76.76 0 0 0-.463-.696.75.75 0 0 0-.817.164z"/>
  <path d="M2 4.454v4.52a6.04 6.04 0 0 0 1.757 4.261A6 6 0 0 0 8 15a6 6 0 0 0 4.243-1.765A6.04 6.04 0 0 0 14 8.974v-4.52zm3.375 5.273a1.12 1.12 0 0 1-1.04-.697 1.13 1.13 0 0 1 .245-1.232 1.124 1.124 0 0 1 1.92.8 1.13 1.13 0 0 1-1.125 1.129m5.625 0a1.12 1.12 0 0 1-1.04-.697 1.13 1.13 0 0 1 .244-1.232 1.123 1.123 0 0 1 1.921.8A1.13 1.13 0 0 1 11 9.727"/>
</svg>
